<svg width="26" height="25" viewBox="0 0 26 25" fill="none" xmlns="http://www.w3.org/2000/svg">
<g clip-path="url(#clip0_22_1554)">
<path d="M4.22994 25H12.4374V16.1133H9.48864V13.1836H12.4374V9.52148C12.4374 7.50217 14.091 5.85938 16.1234 5.85938H19.8094V8.78906H16.8606C16.0476 8.78906 15.3862 9.44614 15.3862 10.2539V13.1836H19.6764L19.1849 16.1133H15.3862V25H22.021C24.0535 25 25.707 23.3572 25.707 21.3379V3.66211C25.707 1.6428 24.0535 0 22.021 0H4.22994C2.19746 0 0.543945 1.6428 0.543945 3.66211V21.3379C0.543945 23.3572 2.19746 25 4.22994 25ZM2.01834 3.66211C2.01834 2.45056 3.01049 1.46484 4.22994 1.46484H22.021C23.2405 1.46484 24.2326 2.45056 24.2326 3.66211V21.3379C24.2326 22.5494 23.2405 23.5352 22.021 23.5352H16.8606V17.5781H20.4339L21.4169 11.7188H16.8606V10.2539H21.2838V4.39453H16.1234C13.2779 4.39453 10.963 6.69441 10.963 9.52148V11.7188H8.01424V17.5781H10.963V23.5352H4.22994C3.01049 23.5352 2.01834 22.5494 2.01834 21.3379V3.66211Z" fill="white"/>
</g>
<defs>
<clipPath id="clip0_22_1554">
<rect width="25.1631" height="25" fill="white" transform="translate(0.543945)"/>
</clipPath>
</defs>
</svg>
