<svg width="26" height="25" viewBox="0 0 26 25" fill="none" xmlns="http://www.w3.org/2000/svg">
<g clip-path="url(#clip0_22_1560)">
<path d="M3.77582 25H21.5668C23.5993 25 25.2528 23.3572 25.2528 21.3379V3.66211C25.2528 1.6428 23.5993 0 21.5668 0H3.77582C1.74335 0 0.0898438 1.6428 0.0898438 3.66211V21.3379C0.0898438 23.3572 1.74335 25 3.77582 25ZM1.56424 3.66211C1.56424 2.45056 2.55638 1.46484 3.77582 1.46484H21.5668C22.7863 1.46484 23.7784 2.45056 23.7784 3.66211V21.3379C23.7784 22.5494 22.7863 23.5352 21.5668 23.5352H3.77582C2.55638 23.5352 1.56424 22.5494 1.56424 21.3379V3.66211Z" fill="white"/>
<path d="M12.6714 19.0918C16.3297 19.0918 19.3062 16.1346 19.3062 12.5C19.3062 8.86536 16.3297 5.9082 12.6714 5.9082C9.01305 5.9082 6.03662 8.86536 6.03662 12.5C6.03662 16.1346 9.01305 19.0918 12.6714 19.0918ZM12.6714 7.37305C15.5169 7.37305 17.8318 9.67293 17.8318 12.5C17.8318 15.3271 15.5169 17.627 12.6714 17.627C9.82589 17.627 7.51101 15.3271 7.51101 12.5C7.51101 9.67293 9.82589 7.37305 12.6714 7.37305Z" fill="white"/>
<path d="M20.0434 7.37305C21.2628 7.37305 22.255 6.38733 22.255 5.17578C22.255 3.96423 21.2628 2.97852 20.0434 2.97852C18.8239 2.97852 17.8318 3.96423 17.8318 5.17578C17.8318 6.38733 18.8239 7.37305 20.0434 7.37305ZM20.0434 4.44336C20.4498 4.44336 20.7806 4.772 20.7806 5.17578C20.7806 5.57957 20.4498 5.9082 20.0434 5.9082C19.637 5.9082 19.3062 5.57957 19.3062 5.17578C19.3062 4.772 19.637 4.44336 20.0434 4.44336Z" fill="white"/>
</g>
<defs>
<clipPath id="clip0_22_1560">
<rect width="25.163" height="25" fill="white" transform="translate(0.0898438)"/>
</clipPath>
</defs>
</svg>
