<svg width="25" height="24" viewBox="0 0 25 24" fill="none" xmlns="http://www.w3.org/2000/svg">
<g clip-path="url(#clip0_22_1566)">
<path d="M6.31723 24.0002H0.0720215V7.28125H6.31723V24.0002ZM1.48597 22.594H4.90327V8.6875H1.48597V22.594Z" fill="white"/>
<path d="M24.203 24.0002H18.0846L18.0872 16.6039C18.1128 15.4034 17.6252 14.4132 16.7827 13.9549C16.2042 13.6401 15.5385 13.6392 14.9139 13.9424L14.8601 24.0002H8.45679V7.28125H14.8638V7.96075C16.8544 7.15894 18.9654 7.27466 20.7998 8.31708C22.8672 9.49207 24.203 11.6644 24.203 13.8514V24.0002ZM19.499 22.594H22.7891V13.8514C22.7891 12.1601 21.7329 10.4671 20.0983 9.53802C19.301 9.08484 18.4042 8.84424 17.505 8.84186C17.5008 8.84186 17.4964 8.84186 17.4919 8.84186C16.4857 8.84186 15.4845 9.1297 14.5158 9.69733L13.45 10.3219V8.6875H9.87074V22.594H13.4537L13.504 13.1611L13.8151 12.9535C14.9606 12.189 16.3237 12.1022 17.4613 12.7211C18.0891 13.0626 18.6099 13.5971 18.9676 14.2664C19.3336 14.9517 19.5181 15.7675 19.501 16.626L19.499 22.594Z" fill="white"/>
<path d="M3.18207 6.23694C1.45297 6.23694 0.0463867 4.83801 0.0463867 3.11847C0.0463867 1.39893 1.45297 0 3.18207 0C4.91099 0 6.31757 1.39893 6.31757 3.11847C6.31757 4.83801 4.91099 6.23694 3.18207 6.23694ZM3.18207 1.40625C2.23274 1.40625 1.46034 2.17438 1.46034 3.11847C1.46034 4.06274 2.23256 4.83087 3.18207 4.83087C4.1314 4.83087 4.90362 4.06274 4.90362 3.11847C4.90362 2.17438 4.1314 1.40625 3.18207 1.40625Z" fill="white"/>
</g>
<defs>
<clipPath id="clip0_22_1566">
<rect width="24.1566" height="24" fill="white" transform="translate(0.0463867)"/>
</clipPath>
</defs>
</svg>
