<svg width="25" height="24" viewBox="0 0 25 24" fill="none" xmlns="http://www.w3.org/2000/svg">
<g clip-path="url(#clip0_22_1573)">
<path d="M19.91 12.4839C19.3001 11.3009 17.8154 10.8519 16.362 11.9869C16.3479 11.9979 14.9086 13.0949 12.6429 13.0949C10.3772 13.0949 8.93787 11.9969 8.92378 11.9869C7.4764 10.8509 5.9797 11.2959 5.37377 12.4869C5.37175 12.4899 5.37075 12.4929 5.36873 12.4969C4.46789 14.3279 5.95554 15.2819 7.1523 16.0489C7.89209 16.5219 8.83823 16.8789 9.9746 17.1149L6.74868 20.3269C4.80105 22.2578 7.85284 25.3048 9.8206 23.3938L12.653 20.5659C13.743 21.6509 14.7586 22.6638 15.4914 23.4048C17.434 25.2998 20.5059 22.3059 18.5693 20.3309C16.2593 18.0379 15.7621 17.5429 15.3253 17.1159C17.7369 16.6029 21.0917 14.9219 19.91 12.4839ZM13.8457 15.8389C13.3243 15.5899 12.6318 16.5359 13.2015 17.1239L13.2076 17.1299C13.2086 17.1309 13.2106 17.1329 13.2116 17.1339C13.2136 17.1359 13.2146 17.1379 13.2166 17.1389C13.5065 17.4259 17.4068 21.2969 17.4933 21.3839C18.0349 21.9369 17.0807 22.8508 16.5563 22.3429C15.6202 21.3969 14.1356 19.9199 13.1844 18.9729C12.8905 18.6799 12.4104 18.6779 12.1155 18.9729L8.75569 22.3268C8.22324 22.8438 7.27409 21.9209 7.81359 21.3859L12.0853 17.1339C12.0873 17.1319 12.0893 17.1299 12.0903 17.1279C12.6208 16.6099 12.0853 15.6499 11.4612 15.8329C9.9746 15.6599 8.76979 15.2989 7.96758 14.7869C6.41753 13.7919 6.49504 13.6169 6.71949 13.1599C7.37172 11.9189 8.52721 14.5949 12.6409 14.5949C15.4581 14.5949 17.2256 13.2199 17.2951 13.1649C17.754 12.8069 18.2925 12.6399 18.5572 13.1509C18.7817 13.6139 18.8652 13.7869 17.3112 14.7899C16.2503 15.4609 14.7506 15.7319 13.8457 15.8389Z" fill="white"/>
<path d="M12.6389 9.99696C14.6056 9.99696 16.205 8.40496 16.205 6.44896C16.205 4.48496 14.6056 2.88696 12.6389 2.88696C10.6731 2.88696 9.07373 4.48496 9.07373 6.44896C9.07272 8.40496 10.6721 9.99696 12.6389 9.99696ZM12.6389 4.38696C13.7722 4.38696 14.6952 5.31196 14.6952 6.44896C14.6952 7.57796 13.7722 8.49696 12.6389 8.49696C11.5055 8.49696 10.5825 7.57796 10.5825 6.44796C10.5825 5.31196 11.5045 4.38696 12.6389 4.38696Z" fill="white"/>
<path d="M12.6389 12.883C16.2111 12.883 19.1179 9.996 19.1179 6.448C19.1169 2.893 16.2111 0 12.6389 0C9.06676 0 6.15991 2.893 6.15991 6.448C6.15991 9.996 9.06575 12.883 12.6389 12.883ZM12.6389 1.5C15.3787 1.5 17.6081 3.72 17.6081 6.448C17.6081 9.169 15.3797 11.383 12.6389 11.383C9.89815 11.383 7.6697 9.169 7.6697 6.448C7.6697 3.72 9.89815 1.5 12.6389 1.5Z" fill="white"/>
</g>
<defs>
<clipPath id="clip0_22_1573">
<rect width="24.1566" height="24" fill="white" transform="translate(0.561523)"/>
</clipPath>
</defs>
</svg>
