<svg width="26" height="25" viewBox="0 0 26 25" fill="none" xmlns="http://www.w3.org/2000/svg">
<g clip-path="url(#clip0_22_1564)">
<path d="M5.4598 14.566L6.31295 15.1211L6.63567 13.9177C7.20681 11.8025 7.14633 11.8959 7.20354 11.6611C7.18031 11.5293 6.57904 9.94013 6.99774 8.00932L7.006 7.96488C7.57829 4.21083 13.9017 3.18907 16.838 5.63181C18.1047 6.68562 18.5814 8.267 18.216 10.2051C17.9538 11.5968 17.4959 12.6346 16.7754 13.471C15.7808 14.6257 14.5299 14.7196 13.7888 14.3181C13.5129 14.1687 12.9017 13.7193 13.185 12.7773C13.5903 11.429 14.3225 9.39825 14.4091 7.92558C14.4863 6.61371 13.6899 5.54598 12.4275 5.26865C11.0203 4.95947 9.39883 5.71401 8.69772 7.47392C8.1932 8.73983 8.19454 10.0555 8.70194 11.4944C8.71845 11.8494 8.35484 13.188 8.0615 14.2679C7.17475 17.5329 5.9601 22.0041 7.14307 24.2809L7.51685 25L8.19953 24.5588C10.1506 23.2986 11.2904 19.6329 11.9151 17.3492C13.5596 18.5591 15.8898 18.6611 18.1947 17.5428C21.8949 15.7474 24.3632 11.4631 23.1265 6.69325C21.7481 1.37689 16.3984 -0.683805 11.0101 0.196627C6.56828 0.922182 3.74331 3.78073 2.99344 7.30398C2.36087 10.2766 3.35206 13.195 5.4598 14.566ZM4.4354 7.60687C5.10521 4.45917 7.65239 2.2291 11.2491 1.64144C15.5686 0.935724 20.4753 2.33705 21.6993 7.0585C22.8314 11.4248 20.3411 14.872 17.548 16.2271C15.8345 17.0583 13.506 17.3048 12.109 15.5033L11.1975 14.328L10.8131 15.7615C10.3055 17.6529 9.48464 20.8637 8.16594 22.5797C7.90696 20.4571 8.86973 16.9119 9.48426 14.6496C10.0709 12.4899 10.3011 11.5917 10.1049 11.0447C9.7081 9.93822 9.69601 8.94659 10.0679 8.01275C10.4845 6.96733 11.3729 6.53646 12.1092 6.69821C12.3751 6.75676 12.9881 6.98488 12.9378 7.84014C12.8633 9.10528 12.1522 11.0964 11.7728 12.3583C11.3745 13.6829 11.8888 14.9568 13.0833 15.6038C14.4256 16.3307 16.4408 16.1112 17.8951 14.4232C18.7904 13.3837 19.3528 12.129 19.6645 10.4746C19.9056 9.1955 19.8484 8.01943 19.4946 6.97859C19.1656 6.01042 18.59 5.17957 17.7841 4.50895C13.981 1.34523 6.3262 2.79825 5.55233 7.72283C5.27684 9.01029 5.32196 10.3504 5.68614 11.7092C5.62759 11.964 5.54446 12.2904 5.45634 12.6259C4.4306 11.4275 4.02322 9.54435 4.4354 7.60687Z" fill="white"/>
</g>
<defs>
<clipPath id="clip0_22_1564">
<rect width="25.1631" height="25" fill="white" transform="translate(0.543945)"/>
</clipPath>
</defs>
</svg>
