<svg width="26" height="25" viewBox="0 0 26 25" fill="none" xmlns="http://www.w3.org/2000/svg">
<g clip-path="url(#clip0_22_1556)">
<path d="M25.7509 5.02756C24.168 5.10004 24.2025 5.09413 24.0236 5.10901L24.9611 2.44921C24.9611 2.44921 22.0349 3.51866 21.2931 3.70997C19.3449 1.97027 16.4491 1.89341 14.3788 3.1576C12.6835 4.1931 11.7735 5.97132 12.077 8.04976C8.77749 7.59485 5.99745 6.04094 3.80256 3.42138L3.10837 2.59302L2.58965 3.53945C1.93404 4.73536 1.71634 6.10273 1.97647 7.38962C2.08321 7.91758 2.26463 8.42112 2.51593 8.89261L1.92041 8.66335L1.84976 9.65193C1.77816 10.6561 2.11469 11.8284 2.75014 12.7874C2.92906 13.0575 3.15944 13.3541 3.45144 13.6467L3.1437 13.5998L3.51921 14.7325C4.01278 16.2208 5.03794 17.3723 6.36835 18.0124C5.03967 18.5726 3.96632 18.93 2.20204 19.5066L0.587891 20.0338L2.07879 20.8437C2.64724 21.1525 4.65591 22.1838 6.64058 22.4932C11.0522 23.1806 16.0193 22.6208 19.3632 19.6287C22.1797 17.1085 23.1039 13.5237 22.9119 9.79307C22.8829 9.22831 23.0386 8.68929 23.3504 8.27559C23.9749 7.44722 25.747 5.03309 25.7509 5.02756ZM22.1714 7.39821C21.6537 8.08504 21.3943 8.96223 21.4408 9.86784C21.6345 13.6308 20.6039 16.5491 18.3775 18.5411C15.7768 20.8683 11.5819 21.7817 6.86884 21.0472C6.01531 20.9142 5.13317 20.6165 4.40307 20.3192C5.88226 19.8135 7.02453 19.3628 8.86925 18.4953L11.4444 17.2844L8.60125 17.1036C7.23936 17.017 6.10534 16.3612 5.40827 15.2965C5.7784 15.2752 6.13529 15.2157 6.49064 15.1172L9.20233 14.3669L6.46799 13.7016C5.13931 13.3783 4.38195 12.5885 3.98053 11.9827C3.71694 11.5846 3.54474 11.1769 3.44145 10.8009C3.7156 10.874 4.03524 10.926 4.5507 10.9768L7.08155 11.2255L5.07634 9.67138C3.63151 8.55177 3.05251 6.86968 3.47697 5.25263C7.98615 9.89931 13.2805 9.55008 13.8135 9.67291C13.6962 8.5409 13.6931 8.53823 13.6624 8.43046C12.9799 6.0335 14.4756 4.81642 15.1502 4.40443C16.5593 3.54403 18.7961 3.41433 20.3453 4.83187C20.6799 5.13781 21.1324 5.25816 21.5559 5.15364C21.9361 5.0598 22.248 4.96042 22.5535 4.85228L21.9176 6.65625L22.7293 6.65682C22.5761 6.86091 22.3924 7.10524 22.1714 7.39821Z" fill="white"/>
</g>
<defs>
<clipPath id="clip0_22_1556">
<rect width="25.163" height="25" fill="white" transform="translate(0.587891)"/>
</clipPath>
</defs>
</svg>
