<svg width="26" height="25" viewBox="0 0 26 25" fill="none" xmlns="http://www.w3.org/2000/svg">
<g clip-path="url(#clip0_22_1558)">
<path d="M22.4881 14.9465L22.4745 14.9339C22.2597 14.7368 21.6015 14.1005 21.3796 13.8225C21.1191 13.4755 21.1792 13.2482 21.3744 12.9075C21.6211 12.477 22.1155 11.8167 22.6386 11.1174C24.3142 8.8786 25.396 7.32868 25.1733 6.22776L25.0533 5.63972L18.8653 5.64239C18.8436 5.70038 18.5207 7.10972 17.158 9.50955C16.1699 11.2496 15.5218 11.7963 15.2935 11.8928L15.2582 11.8821C15.1839 11.7909 15.0541 11.5449 15.0008 10.9107C14.9451 10.2464 14.9944 9.44203 15.0422 8.66421C15.0981 7.75212 15.1463 6.96438 15.0309 6.40076L14.8429 5.48256C14.6158 5.44651 13.7844 5.12779 11.4678 5.10357C9.46217 5.08316 8.87299 5.37098 8.58368 5.62465L7.62666 6.4637L8.83632 6.86806C9.29669 7.02198 9.4495 7.19955 9.57486 8.0798C9.65664 8.65353 9.69946 9.6177 9.61115 10.4785C9.48425 11.7127 9.17996 11.9424 9.16422 11.9546C9.11181 11.9368 8.66738 11.7436 7.89582 10.123C7.36058 8.99895 6.89139 7.66934 6.54851 6.69849C6.15611 5.5867 6.22676 5.8234 6.02767 5.29812L0.0410156 5.29792L0.428428 6.29356C2.04354 10.4483 3.52543 13.6929 5.50856 16.0233C7.69962 18.5981 10.4226 19.9462 14.0906 19.9462H14.8278V19.2138C14.8278 18.529 14.8848 18.036 15.0071 17.6621C15.0818 17.4344 15.181 17.2462 15.2853 17.0487C15.44 16.7581 15.5913 16.6335 15.6738 16.615C15.7487 16.598 15.8804 16.6526 16.0263 16.7607C16.4452 17.0711 16.7777 17.4788 17.1298 17.9107C17.6378 18.5338 18.163 19.1779 18.9964 19.5996C19.4518 19.83 20.2865 19.9464 20.7459 19.9464C20.8674 19.9464 25.1987 19.9462 25.204 19.9462L25.1723 19.1836C25.1251 18.0434 24.2219 16.6177 22.4881 14.9465ZM20.7745 18.4814H20.7626C20.4458 18.4865 19.8413 18.3833 19.6654 18.2944C19.1114 18.0141 18.7242 17.5389 18.2755 16.9889C17.8818 16.5057 17.4746 16.0062 16.9077 15.5864C16.4492 15.2467 16.0328 15.1473 15.7022 15.1473C15.5702 15.1473 15.4515 15.1631 15.3498 15.186C14.966 15.2719 14.4171 15.5461 13.9808 16.3661C13.8577 16.5994 13.7181 16.8635 13.6051 17.2091C13.4866 17.5708 13.4129 17.9727 13.3778 18.4615C10.6137 18.3055 8.45678 17.2191 6.63452 15.0777C4.94031 13.0866 3.6074 10.3017 2.19578 6.7622C2.29792 6.7622 4.85718 6.76258 5.00827 6.76258C5.05454 6.89171 5.10445 7.03323 5.15744 7.18315C5.52699 8.23048 6.03324 9.66462 6.62972 10.8876C7.48383 12.6389 8.26384 13.42 9.15865 13.42C9.60539 13.42 10.006 13.2319 10.3172 12.8758C10.7609 12.3683 11.0185 11.5306 11.1049 10.3146C11.1731 9.35582 11.1097 8.40081 11.0349 7.87457C10.973 7.4416 10.8849 6.98708 10.6699 6.57986C11.5862 6.53885 12.8132 6.6037 13.5905 6.71452C13.6611 7.09675 13.6151 7.84805 13.5705 8.57495C13.4628 10.3309 13.3517 12.1428 14.2872 12.9907C14.4517 13.1398 14.6262 13.2197 14.6312 13.223L15.1073 13.3681C15.291 13.3119 16.3552 13.8482 18.3702 10.3545C19.0158 9.23508 19.6169 7.94514 19.9406 7.10266C20.6912 7.10114 23.2485 7.104 23.549 7.10438C23.1234 8.03498 22.1147 9.3623 21.4555 10.2433C20.8807 11.0112 20.3844 11.6744 20.0932 12.1825C19.5522 13.1265 19.6432 13.9678 20.2066 14.7099L20.2155 14.7214C20.5299 15.1191 21.3065 15.8553 21.4675 16.0037C22.6344 17.1292 23.1967 17.9378 23.4643 18.4812H20.7745V18.4814Z" fill="white"/>
</g>
<defs>
<clipPath id="clip0_22_1558">
<rect width="25.163" height="24.9512" fill="white" transform="translate(0.0898438)"/>
</clipPath>
</defs>
</svg>
