<svg width="25" height="24" viewBox="0 0 25 24" fill="none" xmlns="http://www.w3.org/2000/svg">
<g clip-path="url(#clip0_22_1570)">
<path d="M3.58495 21.1406H20.6644C22.6156 21.1406 24.203 19.5635 24.203 17.625V6.375C24.203 4.43646 22.6156 2.85938 20.6644 2.85938H3.58495C1.63377 2.85938 0.0463867 4.43646 0.0463867 6.375V17.625C0.0463867 19.5635 1.63377 21.1406 3.58495 21.1406ZM1.46181 6.375C1.46181 5.21191 2.41428 4.26562 3.58495 4.26562H20.6644C21.8351 4.26562 22.7876 5.21191 22.7876 6.375V17.625C22.7876 18.7881 21.8351 19.7344 20.6644 19.7344H3.58495C2.41428 19.7344 1.46181 18.7881 1.46181 17.625V6.375Z" fill="white"/>
<path d="M8.58618 7.28955V16.8473L17.1023 11.9901L8.58618 7.28955ZM10.0016 9.67944L14.2243 12.0102L10.0016 14.4186V9.67944Z" fill="white"/>
</g>
<defs>
<clipPath id="clip0_22_1570">
<rect width="24.1566" height="24" fill="white" transform="translate(0.0463867)"/>
</clipPath>
</defs>
</svg>
